# MagicaVoxel @ Ephtracy

# group
o 

# material
mtllib uzi_rotated.mtl
usemtl palette

# normals
vn -1 0 0
vn 1 0 0
vn 0 0 1
vn 0 0 -1
vn 0 -1 0
vn 0 1 0

# texcoords
vt 0.537109 0.5
vt 0.958984 0.5
vt 0.994141 0.5

# verts
v 1.9 2.2 -1.9
v 1.9 2.2 -2.5
v 1.9 2.3 -2
v 1.9 2.3 -2.3
v 1.9 2.4 -2.3
v 1.9 2.4 -2.4
v 1.9 2.9 -2
v 1.9 2.9 -2.4
v 1.9 3 -1.3
v 1.9 3 -1.9
v 1.9 3 -2.5
v 1.9 3 -3
v 1.9 3.1 -1.1
v 1.9 3.1 -1.3
v 1.9 3.5 -2.8
v 1.9 3.5 -3
v 1.9 3.6 -1.6
v 1.9 3.6 -2.5
v 1.9 3.7 -1.1
v 1.9 3.7 -1.6
v 1.9 3.7 -2.5
v 1.9 3.7 -2.8
v 2 2 -1.9
v 2 2 -2.3
v 2 2.2 -1.9
v 2 2.2 -2.3
v 2 2.7 -1.6
v 2 2.7 -1.9
v 2 2.8 -1.5
v 2 2.8 -1.6
v 2 2.8 -1.8
v 2 2.8 -1.9
v 2 2.9 -1.8
v 2 2.9 -1.9
v 2 3 -1.1
v 2 3 -1.3
v 2 3 -1.5
v 2 3 -1.9
v 2 3.1 -0.7
v 2 3.1 -1.1
v 2 3.1 -1.3
v 2 3.3 -0.7
v 2 3.3 -1
v 2 3.4 -1
v 2 3.4 -1.1
v 2.1 3.1 -1.5
v 2.1 3.1 -2.3
v 2.1 3.2 -1.3
v 2.1 3.2 -1.5
v 2.1 3.2 -2.5
v 2.1 3.2 -2.9
v 2.1 3.3 -1.2
v 2.1 3.3 -1.3
v 2.1 3.3 -2.3
v 2.1 3.3 -2.4
v 2.1 3.4 -1.3
v 2.1 3.4 -1.5
v 2.1 3.4 -2.5
v 2.1 3.4 -2.6
v 2.1 3.4 -2.7
v 2.1 3.4 -2.9
v 2.1 3.5 -1.2
v 2.1 3.5 -1.3
v 2.1 3.5 -1.5
v 2.1 3.5 -2.4
v 2.1 3.6 -2.6
v 2.1 3.6 -2.7
v 2 3.1 -1.5
v 2 3.1 -2.3
v 2 3.2 -1.3
v 2 3.2 -1.5
v 2 3.2 -2.5
v 2 3.2 -2.9
v 2 3.3 -1.2
v 2 3.3 -1.3
v 2 3.3 -2.3
v 2 3.3 -2.4
v 2 3.4 -1.3
v 2 3.4 -1.5
v 2 3.4 -2.5
v 2 3.4 -2.6
v 2 3.4 -2.7
v 2 3.4 -2.9
v 2 3.5 -1.2
v 2 3.5 -1.3
v 2 3.5 -1.5
v 2 3.5 -2.4
v 2 3.6 -2.6
v 2 3.6 -2.7
v 2.1 2 -1.9
v 2.1 2 -2.3
v 2.1 2.2 -2.3
v 2.1 2.2 -2.5
v 2.1 2.3 -2
v 2.1 2.3 -2.3
v 2.1 2.4 -2.3
v 2.1 2.4 -2.4
v 2.1 2.7 -1.6
v 2.1 2.7 -1.9
v 2.1 2.8 -1.5
v 2.1 2.8 -1.6
v 2.1 2.8 -1.8
v 2.1 2.8 -1.9
v 2.1 2.9 -1.8
v 2.1 2.9 -1.9
v 2.1 2.9 -2
v 2.1 2.9 -2.4
v 2.1 3 -1.5
v 2.1 3 -2.5
v 2.1 3.1 -0.7
v 2.1 3.1 -1.1
v 2.1 3.3 -0.7
v 2.1 3.3 -1
v 2.1 3.4 -1
v 2.1 3.4 -1.1
v 2.2 3 -1.1
v 2.2 3 -3
v 2.2 3.5 -2.8
v 2.2 3.5 -3
v 2.2 3.6 -1.6
v 2.2 3.6 -2.5
v 2.2 3.7 -1.1
v 2.2 3.7 -1.6
v 2.2 3.7 -2.5
v 2.2 3.7 -2.8
v 2 3.1 -0.7
v 2 3.3 -0.7
v 2.1 3.1 -0.7
v 2.1 3.3 -0.7
v 2 3.3 -1
v 2 3.4 -1
v 2.1 3.3 -1
v 2.1 3.4 -1
v 1.9 3.1 -1.1
v 1.9 3.7 -1.1
v 2 3 -1.1
v 2 3.1 -1.1
v 2 3.4 -1.1
v 2.1 3.1 -1.1
v 2.1 3.4 -1.1
v 2.2 3 -1.1
v 2.2 3.7 -1.1
v 1.9 3 -1.3
v 1.9 3.1 -1.3
v 2 3 -1.3
v 2 3.1 -1.3
v 2 3.4 -1.3
v 2 3.5 -1.3
v 2.1 3.4 -1.3
v 2.1 3.5 -1.3
v 2 2.8 -1.5
v 2 3 -1.5
v 2.1 2.8 -1.5
v 2.1 3 -1.5
v 2 2.7 -1.6
v 2 2.8 -1.6
v 2.1 2.7 -1.6
v 2.1 2.8 -1.6
v 1.9 2.2 -1.9
v 1.9 3 -1.9
v 2 2 -1.9
v 2 2.2 -1.9
v 2 2.7 -1.9
v 2 2.8 -1.9
v 2 2.9 -1.9
v 2 3 -1.9
v 2.1 2 -1.9
v 2.1 2.7 -1.9
v 2 3.1 -2.3
v 2 3.3 -2.3
v 2.1 3.1 -2.3
v 2.1 3.3 -2.3
v 2 3.3 -2.4
v 2 3.5 -2.4
v 2.1 3.3 -2.4
v 2.1 3.5 -2.4
v 1.9 3.6 -2.5
v 1.9 3.7 -2.5
v 2.2 3.6 -2.5
v 2.2 3.7 -2.5
v 2 3.4 -2.7
v 2 3.6 -2.7
v 2.1 3.4 -2.7
v 2.1 3.6 -2.7
v 2 3.2 -2.9
v 2 3.4 -2.9
v 2.1 3.2 -2.9
v 2.1 3.4 -2.9
v 2 3.3 -1.2
v 2 3.5 -1.2
v 2.1 3.3 -1.2
v 2.1 3.5 -1.2
v 2 3.2 -1.3
v 2 3.3 -1.3
v 2.1 3.2 -1.3
v 2.1 3.3 -1.3
v 2 3.1 -1.5
v 2 3.2 -1.5
v 2 3.4 -1.5
v 2 3.5 -1.5
v 2.1 3.1 -1.5
v 2.1 3.2 -1.5
v 2.1 3.4 -1.5
v 2.1 3.5 -1.5
v 1.9 3.6 -1.6
v 1.9 3.7 -1.6
v 2.2 3.6 -1.6
v 2.2 3.7 -1.6
v 2 2 -2.3
v 2 2.2 -2.3
v 2.1 2 -2.3
v 2.1 2.2 -2.3
v 1.9 2.2 -2.5
v 1.9 3 -2.5
v 2 3.2 -2.5
v 2 3.4 -2.5
v 2.1 2.2 -2.5
v 2.1 3 -2.5
v 2.1 3.2 -2.5
v 2.1 3.4 -2.5
v 2 3.4 -2.6
v 2 3.6 -2.6
v 2.1 3.4 -2.6
v 2.1 3.6 -2.6
v 1.9 3.5 -2.8
v 1.9 3.7 -2.8
v 2.2 3.5 -2.8
v 2.2 3.7 -2.8
v 1.9 3 -3
v 1.9 3.5 -3
v 2.2 3 -3
v 2.2 3.5 -3
v 2 2 -1.9
v 2.1 2 -1.9
v 2 2 -2.3
v 2.1 2 -2.3
v 1.9 2.2 -1.9
v 2 2.2 -1.9
v 2 2.2 -2.3
v 2.1 2.2 -2.3
v 1.9 2.2 -2.5
v 2.1 2.2 -2.5
v 2 2.7 -1.6
v 2.1 2.7 -1.6
v 2 2.7 -1.9
v 2.1 2.7 -1.9
v 2 2.8 -1.5
v 2.1 2.8 -1.5
v 2 2.8 -1.6
v 2.1 2.8 -1.6
v 2 3 -1.1
v 2.2 3 -1.1
v 1.9 3 -1.3
v 2 3 -1.3
v 2 3 -1.5
v 2.1 3 -1.5
v 1.9 3 -1.9
v 2 3 -1.9
v 1.9 3 -2.5
v 2.1 3 -2.5
v 1.9 3 -3
v 2.2 3 -3
v 2 3.1 -0.7
v 2.1 3.1 -0.7
v 1.9 3.1 -1.1
v 2 3.1 -1.1
v 2.1 3.1 -1.1
v 1.9 3.1 -1.3
v 2 3.1 -1.3
v 2 3.4 -1.3
v 2.1 3.4 -1.3
v 2 3.4 -1.5
v 2.1 3.4 -1.5
v 2 3.4 -2.5
v 2.1 3.4 -2.5
v 2 3.4 -2.6
v 2.1 3.4 -2.6
v 2 3.4 -2.7
v 2.1 3.4 -2.7
v 2 3.4 -2.9
v 2.1 3.4 -2.9
v 2 3.5 -1.2
v 2.1 3.5 -1.2
v 2 3.5 -1.3
v 2.1 3.5 -1.3
v 2 3.5 -1.5
v 2.1 3.5 -1.5
v 2 3.5 -2.4
v 2.1 3.5 -2.4
v 2 3.6 -2.6
v 2.1 3.6 -2.6
v 2 3.6 -2.7
v 2.1 3.6 -2.7
v 2 3.1 -1.5
v 2.1 3.1 -1.5
v 2 3.1 -2.3
v 2.1 3.1 -2.3
v 2 3.2 -1.3
v 2.1 3.2 -1.3
v 2 3.2 -1.5
v 2.1 3.2 -1.5
v 2 3.2 -2.5
v 2.1 3.2 -2.5
v 2 3.2 -2.9
v 2.1 3.2 -2.9
v 2 3.3 -0.7
v 2.1 3.3 -0.7
v 2 3.3 -1
v 2.1 3.3 -1
v 2 3.3 -1.2
v 2.1 3.3 -1.2
v 2 3.3 -1.3
v 2.1 3.3 -1.3
v 2 3.3 -2.3
v 2.1 3.3 -2.3
v 2 3.3 -2.4
v 2.1 3.3 -2.4
v 2 3.4 -1
v 2.1 3.4 -1
v 2 3.4 -1.1
v 2.1 3.4 -1.1
v 1.9 3.5 -2.8
v 2.2 3.5 -2.8
v 1.9 3.5 -3
v 2.2 3.5 -3
v 1.9 3.6 -1.6
v 2.2 3.6 -1.6
v 1.9 3.6 -2.5
v 2.2 3.6 -2.5
v 1.9 3.7 -1.1
v 2.2 3.7 -1.1
v 1.9 3.7 -1.6
v 2.2 3.7 -1.6
v 1.9 3.7 -2.5
v 2.2 3.7 -2.5
v 1.9 3.7 -2.8
v 2.2 3.7 -2.8

# faces
f 3/3/1 2/3/1 1/3/1
f 4/3/1 2/3/1 3/3/1
f 5/1/1 4/1/1 3/1/1
f 5/3/1 2/3/1 4/3/1
f 6/3/1 2/3/1 5/3/1
f 7/3/1 3/3/1 1/3/1
f 7/1/1 5/1/1 3/1/1
f 7/1/1 6/1/1 5/1/1
f 8/3/1 2/3/1 6/3/1
f 8/1/1 6/1/1 7/1/1
f 10/3/1 7/3/1 1/3/1
f 10/3/1 8/3/1 7/3/1
f 11/3/1 2/3/1 8/3/1
f 11/3/1 8/3/1 10/3/1
f 14/3/1 10/3/1 9/3/1
f 14/3/1 12/3/1 11/3/1
f 14/3/1 11/3/1 10/3/1
f 15/3/1 12/3/1 14/3/1
f 15/3/1 14/3/1 13/3/1
f 16/3/1 12/3/1 15/3/1
f 17/3/1 15/3/1 13/3/1
f 18/3/1 15/3/1 17/3/1
f 19/3/1 17/3/1 13/3/1
f 20/3/1 17/3/1 19/3/1
f 21/3/1 15/3/1 18/3/1
f 22/3/1 15/3/1 21/3/1
f 25/3/1 24/3/1 23/3/1
f 26/3/1 24/3/1 25/3/1
f 30/3/1 28/3/1 27/3/1
f 31/3/1 28/3/1 30/3/1
f 32/3/1 28/3/1 31/3/1
f 33/3/1 30/3/1 29/3/1
f 33/3/1 31/3/1 30/3/1
f 33/2/1 32/2/1 31/2/1
f 34/2/1 32/2/1 33/2/1
f 37/3/1 33/3/1 29/3/1
f 37/3/1 34/3/1 33/3/1
f 38/3/1 34/3/1 37/3/1
f 40/3/1 36/3/1 35/3/1
f 41/3/1 36/3/1 40/3/1
f 42/3/1 40/3/1 39/3/1
f 43/3/1 40/3/1 42/3/1
f 44/3/1 40/3/1 43/3/1
f 45/3/1 40/3/1 44/3/1
f 49/3/1 47/3/1 46/3/1
f 53/3/1 49/3/1 48/3/1
f 54/3/1 47/3/1 49/3/1
f 54/3/1 49/3/1 53/3/1
f 56/3/1 53/3/1 52/3/1
f 56/3/1 55/3/1 54/3/1
f 56/3/1 54/3/1 53/3/1
f 57/3/1 55/3/1 56/3/1
f 58/3/1 51/3/1 50/3/1
f 59/3/1 51/3/1 58/3/1
f 60/3/1 51/3/1 59/3/1
f 61/3/1 51/3/1 60/3/1
f 62/3/1 56/3/1 52/3/1
f 63/3/1 56/3/1 62/3/1
f 64/3/1 55/3/1 57/3/1
f 65/3/1 55/3/1 64/3/1
f 66/3/1 60/3/1 59/3/1
f 67/3/1 60/3/1 66/3/1
f 68/3/2 69/3/2 71/3/2
f 70/3/2 71/3/2 75/3/2
f 71/3/2 69/3/2 76/3/2
f 75/3/2 71/3/2 76/3/2
f 74/3/2 75/3/2 78/3/2
f 76/3/2 77/3/2 78/3/2
f 75/3/2 76/3/2 78/3/2
f 78/3/2 77/3/2 79/3/2
f 72/3/2 73/3/2 80/3/2
f 80/3/2 73/3/2 81/3/2
f 81/3/2 73/3/2 82/3/2
f 82/3/2 73/3/2 83/3/2
f 74/3/2 78/3/2 84/3/2
f 84/3/2 78/3/2 85/3/2
f 79/3/2 77/3/2 86/3/2
f 86/3/2 77/3/2 87/3/2
f 81/3/2 82/3/2 88/3/2
f 88/3/2 82/3/2 89/3/2
f 90/3/2 91/3/2 92/3/2
f 90/3/2 92/3/2 94/3/2
f 92/3/2 93/3/2 94/3/2
f 94/3/2 93/3/2 95/3/2
f 94/1/2 95/1/2 96/1/2
f 95/3/2 93/3/2 96/3/2
f 96/3/2 93/3/2 97/3/2
f 90/3/2 94/3/2 99/3/2
f 98/3/2 99/3/2 101/3/2
f 101/3/2 99/3/2 102/3/2
f 99/3/2 94/3/2 103/3/2
f 102/3/2 99/3/2 103/3/2
f 101/3/2 102/3/2 104/3/2
f 100/3/2 101/3/2 104/3/2
f 102/2/2 103/2/2 104/2/2
f 103/3/2 94/3/2 105/3/2
f 104/2/2 103/2/2 105/2/2
f 94/1/2 96/1/2 106/1/2
f 105/3/2 94/3/2 106/3/2
f 96/1/2 97/1/2 106/1/2
f 97/3/2 93/3/2 107/3/2
f 106/1/2 97/1/2 107/1/2
f 105/3/2 106/3/2 108/3/2
f 104/3/2 105/3/2 108/3/2
f 106/3/2 107/3/2 108/3/2
f 100/3/2 104/3/2 108/3/2
f 107/3/2 93/3/2 109/3/2
f 108/3/2 107/3/2 109/3/2
f 110/3/2 111/3/2 112/3/2
f 112/3/2 111/3/2 113/3/2
f 113/3/2 111/3/2 114/3/2
f 114/3/2 111/3/2 115/3/2
f 116/3/2 117/3/2 118/3/2
f 118/3/2 117/3/2 119/3/2
f 116/3/2 118/3/2 120/3/2
f 120/3/2 118/3/2 121/3/2
f 116/3/2 120/3/2 122/3/2
f 122/3/2 120/3/2 123/3/2
f 121/3/2 118/3/2 124/3/2
f 124/3/2 118/3/2 125/3/2
f 128/3/3 127/3/3 126/3/3
f 129/3/3 127/3/3 128/3/3
f 132/3/3 131/3/3 130/3/3
f 133/3/3 131/3/3 132/3/3
f 137/3/3 135/3/3 134/3/3
f 138/3/3 135/3/3 137/3/3
f 139/3/3 137/3/3 136/3/3
f 140/3/3 135/3/3 138/3/3
f 141/3/3 139/3/3 136/3/3
f 141/3/3 140/3/3 139/3/3
f 142/3/3 135/3/3 140/3/3
f 142/3/3 140/3/3 141/3/3
f 145/3/3 144/3/3 143/3/3
f 146/3/3 144/3/3 145/3/3
f 149/3/3 148/3/3 147/3/3
f 150/3/3 148/3/3 149/3/3
f 153/3/3 152/3/3 151/3/3
f 154/3/3 152/3/3 153/3/3
f 157/3/3 156/3/3 155/3/3
f 158/3/3 156/3/3 157/3/3
f 162/3/3 160/3/3 159/3/3
f 163/3/3 160/3/3 162/3/3
f 164/3/3 160/3/3 163/3/3
f 165/3/3 160/3/3 164/3/3
f 166/3/3 160/3/3 165/3/3
f 167/3/3 162/3/3 161/3/3
f 167/3/3 163/3/3 162/3/3
f 168/3/3 163/3/3 167/3/3
f 171/3/3 170/3/3 169/3/3
f 172/3/3 170/3/3 171/3/3
f 175/3/3 174/3/3 173/3/3
f 176/3/3 174/3/3 175/3/3
f 179/3/3 178/3/3 177/3/3
f 180/3/3 178/3/3 179/3/3
f 183/3/3 182/3/3 181/3/3
f 184/3/3 182/3/3 183/3/3
f 187/3/3 186/3/3 185/3/3
f 188/3/3 186/3/3 187/3/3
f 189/3/4 190/3/4 191/3/4
f 191/3/4 190/3/4 192/3/4
f 193/3/4 194/3/4 195/3/4
f 195/3/4 194/3/4 196/3/4
f 197/3/4 198/3/4 201/3/4
f 201/3/4 198/3/4 202/3/4
f 199/3/4 200/3/4 203/3/4
f 203/3/4 200/3/4 204/3/4
f 205/3/4 206/3/4 207/3/4
f 207/3/4 206/3/4 208/3/4
f 209/3/4 210/3/4 211/3/4
f 211/3/4 210/3/4 212/3/4
f 213/3/4 214/3/4 217/3/4
f 217/3/4 214/3/4 218/3/4
f 215/3/4 216/3/4 219/3/4
f 219/3/4 216/3/4 220/3/4
f 221/3/4 222/3/4 223/3/4
f 223/3/4 222/3/4 224/3/4
f 225/3/4 226/3/4 227/3/4
f 227/3/4 226/3/4 228/3/4
f 229/3/4 230/3/4 231/3/4
f 231/3/4 230/3/4 232/3/4
f 235/3/5 234/3/5 233/3/5
f 236/3/5 234/3/5 235/3/5
f 239/3/5 238/3/5 237/3/5
f 241/3/5 239/3/5 237/3/5
f 241/3/5 240/3/5 239/3/5
f 242/3/5 240/3/5 241/3/5
f 245/3/5 244/3/5 243/3/5
f 246/3/5 244/3/5 245/3/5
f 249/3/5 248/3/5 247/3/5
f 250/3/5 248/3/5 249/3/5
f 254/3/5 252/3/5 251/3/5
f 255/3/5 252/3/5 254/3/5
f 255/3/5 254/3/5 253/3/5
f 256/3/5 252/3/5 255/3/5
f 257/3/5 255/3/5 253/3/5
f 258/3/5 255/3/5 257/3/5
f 260/3/5 252/3/5 256/3/5
f 261/3/5 260/3/5 259/3/5
f 262/3/5 252/3/5 260/3/5
f 262/3/5 260/3/5 261/3/5
f 266/3/5 264/3/5 263/3/5
f 267/3/5 264/3/5 266/3/5
f 268/3/5 266/3/5 265/3/5
f 269/3/5 266/3/5 268/3/5
f 272/3/5 271/3/5 270/3/5
f 273/3/5 271/3/5 272/3/5
f 276/3/5 275/3/5 274/3/5
f 277/3/5 275/3/5 276/3/5
f 280/3/5 279/3/5 278/3/5
f 281/3/5 279/3/5 280/3/5
f 284/3/5 283/3/5 282/3/5
f 285/3/5 283/3/5 284/3/5
f 288/3/5 287/3/5 286/3/5
f 289/3/5 287/3/5 288/3/5
f 292/3/5 291/3/5 290/3/5
f 293/3/5 291/3/5 292/3/5
f 294/3/6 295/3/6 296/3/6
f 296/3/6 295/3/6 297/3/6
f 298/3/6 299/3/6 300/3/6
f 300/3/6 299/3/6 301/3/6
f 302/3/6 303/3/6 304/3/6
f 304/3/6 303/3/6 305/3/6
f 306/3/6 307/3/6 308/3/6
f 308/3/6 307/3/6 309/3/6
f 310/3/6 311/3/6 312/3/6
f 312/3/6 311/3/6 313/3/6
f 314/3/6 315/3/6 316/3/6
f 316/3/6 315/3/6 317/3/6
f 318/3/6 319/3/6 320/3/6
f 320/3/6 319/3/6 321/3/6
f 322/3/6 323/3/6 324/3/6
f 324/3/6 323/3/6 325/3/6
f 326/3/6 327/3/6 328/3/6
f 328/3/6 327/3/6 329/3/6
f 330/3/6 331/3/6 332/3/6
f 332/3/6 331/3/6 333/3/6
f 334/3/6 335/3/6 336/3/6
f 336/3/6 335/3/6 337/3/6
